<svg width="400" height="400" viewBox="0 0 558 445" fill="none" xmlns="http://www.w3.org/2000/svg">
<g id="ill" clip-path="url(#clip0)">
<g id="undraw dev productivity umsq (1) 1">
<path id="Vector" d="M339.751 402.81C339.751 402.81 336.427 403.861 331.022 405.351C319.073 408.66 296.962 414.148 278.225 415.244C262.092 416.199 248.46 413.903 245.967 404.184C244.898 400.005 246.414 396.567 249.717 393.742C259.578 385.3 285.334 382.276 305.762 381.237C311.53 380.947 316.866 380.812 321.307 380.76C328.85 380.67 333.794 380.812 333.794 380.812L333.913 381.237L339.751 402.81Z" fill="#A0616A"/>
<path id="Vector 2" d="M283.93 433.734C271.094 448.413 218.102 417.663 199.567 406.196C195.53 403.7 193.128 402.12 193.128 402.12L210.084 381.237L215.455 374.627C215.455 374.627 220.26 376.981 227.362 380.812C227.621 380.954 227.879 381.095 228.144 381.237C234.269 384.559 241.958 388.899 249.717 393.742C260.423 400.43 271.248 408.06 278.225 415.244C285.048 422.268 288.184 428.865 283.93 433.734Z" fill="#A0616A"/>
<g id="user">
<path id="Vector 3" d="M282.312 123.76C310.673 123.538 333.47 102.126 333.23 75.9344C332.989 49.7428 309.802 28.6905 281.441 28.9126C253.078 29.1347 230.281 50.547 230.522 76.7386C230.763 102.93 253.949 123.982 282.312 123.76Z" fill="#FED6DB"/>
<path id="Vector 4" d="M243.765 100.348C243.765 100.348 254.058 167.628 239.243 175.305C224.427 182.982 327.885 182.859 327.885 182.859C327.885 182.859 304.277 124.619 314.532 106.668L243.765 100.348Z" fill="#FED6DB"/>
<path id="Vector 5" d="M403.43 182.608L395.158 218.855L377.669 295.541L377.163 299.737L371.33 348.315L367.45 380.587L364.849 402.265C347.897 410.478 335.609 416.154 335.609 416.154C335.609 416.154 334.502 411.248 332.733 404.973C320.815 408.375 298.755 414.036 280.029 415.279C286.917 422.249 290.112 428.822 285.905 433.724C273.203 448.503 219.931 418.169 201.291 406.847C200.885 409.596 200.747 412.373 200.878 415.145L186.602 405.182L187.793 381.994L189.801 342.758L192.324 293.555C191.367 291.456 190.561 289.302 189.911 287.105C185.436 272.873 179.902 244.429 175.639 220.574C172.209 201.375 169.615 185.148 169.067 181.696C168.993 181.245 168.956 181.013 168.956 181.013L247.177 148.359C252.866 160.266 278.955 163.654 278.955 163.654C300.528 162.111 317.352 151.467 317.352 151.467L403.43 182.608Z" fill="#3B6978"/>
<path id="Vector 6" d="M238.742 31.8129L229.108 28.3382C229.108 28.3382 248.997 7.76928 276.947 9.32549L269.017 1.39976C269.017 1.39976 288.156 -5.85029 305.785 12.6497C315.052 22.3748 325.776 33.8074 332.514 46.7279L342.797 46.6474L338.586 55.4077L353.687 64.0168L338.255 62.57C339.217 67.3419 339.403 72.2195 338.806 77.0416C338.189 81.8657 335.567 86.2795 331.492 89.3513C331.492 89.3513 319.375 66.6828 319.342 63.1326L319.424 72.0073C319.424 72.0073 309.749 64.0954 309.7 58.7706L304.519 65.024L301.811 55.2822L269.603 65.2975L274.768 57.2691L254.715 60.0888L262.482 50.265C262.482 50.265 239.892 61.9798 239.11 71.7487C238.326 81.518 231.768 90.8198 231.768 90.8198C231.768 90.8198 213.551 45.323 238.742 31.8129Z" fill="#3B6978"/>
<path id="Vector 7" d="M460.776 348.498C455.593 353.776 442.704 361.764 427.07 370.426C421.254 373.645 415.062 376.963 408.744 380.264C393.667 388.14 377.878 395.951 364.849 402.265C347.897 410.478 335.609 416.154 335.609 416.154C335.609 416.154 334.502 411.248 332.733 404.973C330.365 396.575 326.815 385.723 323.175 380.934C323.048 380.767 322.921 380.613 322.793 380.459C321.734 379.197 320.673 378.463 319.633 378.471L371.33 348.315L393.671 335.28L377.163 299.737L356.458 255.152L368.376 219.064L380.356 182.789L403.43 182.608C403.43 182.608 411.211 197.948 421.177 219.348C422.667 222.548 424.206 225.883 425.774 229.327C446.287 274.314 471.923 337.157 460.776 348.498Z" fill="#3B6978"/>
<path id="Vector 8" d="M228.852 381.246C226.957 381.254 225.066 381.411 223.199 381.716C207.168 384.389 202.556 397.847 201.291 406.847C200.885 409.596 200.747 412.373 200.879 415.144L186.602 405.182L181.401 401.553C168.927 397.646 157.778 390.619 148.092 382.304C139.688 374.962 132.135 366.832 125.556 358.044C119.003 349.382 113.149 340.288 108.041 330.835C106.616 328.197 105.836 325.301 105.757 322.354C105.678 319.407 106.302 316.48 107.584 313.779L124.816 277.495L150.002 224.463C150.179 223.204 150.375 221.973 150.589 220.77C155.433 193.773 168.962 181.697 168.962 181.697L179.381 181.615L186.709 220.487L195.812 268.781L189.911 287.104L176.276 329.423L189.8 342.758L228.852 381.246Z" fill="#3B6978"/>
<path id="Vector 9" d="M239.156 268.13L248.063 277.726C251.372 277.144 254.829 276.459 258.388 275.69L255.829 268.13L262.085 274.869C299.795 266.304 346.538 249.652 346.538 249.652C346.538 249.652 296.074 253.069 258.397 245.467C241.726 242.104 224.574 249.735 217.733 264.171C213.757 272.562 214.382 279.832 228.484 279.832C233.249 279.757 238.001 279.345 242.698 278.598L239.156 268.13Z" fill="#FF8108"/>
</g>
<path id="Vector 10" d="M442.224 425.866V429.781C442.227 430.855 442.011 431.921 441.588 432.922C441.401 433.368 441.174 433.8 440.911 434.212C440.078 435.502 438.897 436.57 437.483 437.312C436.07 438.054 434.471 438.443 432.845 438.442H120.986C119.36 438.443 117.762 438.054 116.347 437.312C114.933 436.57 113.752 435.502 112.92 434.212C112.657 433.8 112.43 433.368 112.242 432.922C111.821 431.921 111.605 430.855 111.607 429.781V425.866C111.607 424.729 111.849 423.603 112.321 422.551C112.791 421.5 113.483 420.546 114.354 419.741C115.224 418.937 116.259 418.299 117.396 417.863C118.535 417.428 119.754 417.204 120.986 417.205H138.962V415.38C138.962 415.332 138.973 415.285 138.992 415.241C139.012 415.197 139.04 415.158 139.077 415.124C139.113 415.091 139.156 415.064 139.204 415.046C139.251 415.028 139.302 415.019 139.353 415.019H148.732C148.784 415.019 148.835 415.028 148.883 415.046C148.93 415.064 148.973 415.091 149.01 415.124C149.046 415.158 149.075 415.197 149.094 415.241C149.114 415.285 149.123 415.332 149.123 415.38V417.205H154.983V415.38C154.983 415.332 154.993 415.285 155.013 415.241C155.032 415.197 155.061 415.158 155.097 415.124C155.134 415.091 155.177 415.064 155.224 415.046C155.272 415.028 155.323 415.019 155.374 415.019H164.753C164.805 415.019 164.856 415.028 164.903 415.046C164.951 415.064 164.993 415.091 165.03 415.124C165.067 415.158 165.095 415.197 165.115 415.241C165.134 415.285 165.144 415.332 165.144 415.38V417.205H171.01V415.38C171.01 415.332 171.021 415.285 171.041 415.241C171.06 415.197 171.089 415.158 171.125 415.124C171.161 415.091 171.205 415.064 171.252 415.046C171.3 415.028 171.351 415.019 171.402 415.019H180.781C180.832 415.019 180.883 415.028 180.931 415.046C180.978 415.064 181.021 415.091 181.057 415.124C181.094 415.158 181.123 415.197 181.143 415.241C181.162 415.285 181.172 415.332 181.172 415.38V417.205H187.031V415.38C187.031 415.332 187.042 415.285 187.061 415.241C187.081 415.197 187.109 415.158 187.146 415.124C187.182 415.091 187.225 415.064 187.273 415.046C187.32 415.028 187.371 415.019 187.422 415.019H196.801C196.853 415.019 196.904 415.028 196.952 415.046C196.999 415.064 197.042 415.091 197.078 415.124C197.114 415.158 197.144 415.197 197.163 415.241C197.183 415.285 197.193 415.332 197.193 415.38V417.205H203.052V415.38C203.052 415.332 203.062 415.285 203.082 415.241C203.101 415.197 203.13 415.158 203.166 415.124C203.203 415.091 203.246 415.064 203.293 415.046C203.341 415.028 203.392 415.019 203.443 415.019H212.822C212.874 415.019 212.925 415.028 212.972 415.046C213.02 415.064 213.062 415.091 213.099 415.124C213.135 415.158 213.164 415.197 213.184 415.241C213.203 415.285 213.213 415.332 213.213 415.38V417.205H219.08V415.38C219.08 415.332 219.09 415.285 219.11 415.241C219.129 415.197 219.158 415.158 219.194 415.124C219.23 415.091 219.274 415.064 219.321 415.046C219.369 415.028 219.42 415.019 219.471 415.019H228.85C228.901 415.019 228.952 415.028 229 415.046C229.047 415.064 229.09 415.091 229.126 415.124C229.163 415.158 229.192 415.197 229.212 415.241C229.231 415.285 229.241 415.332 229.241 415.38V417.205H235.1V415.38C235.1 415.332 235.111 415.285 235.13 415.241C235.15 415.197 235.178 415.158 235.215 415.124C235.251 415.091 235.294 415.064 235.342 415.046C235.389 415.028 235.44 415.019 235.491 415.019H308.96C309.012 415.019 309.063 415.028 309.11 415.046C309.158 415.064 309.2 415.091 309.237 415.124C309.274 415.158 309.302 415.197 309.322 415.241C309.341 415.285 309.351 415.332 309.351 415.38V417.205H315.218V415.38C315.218 415.332 315.227 415.285 315.248 415.241C315.267 415.197 315.296 415.158 315.332 415.124C315.368 415.091 315.412 415.064 315.459 415.046C315.507 415.028 315.558 415.019 315.609 415.019H324.988C325.091 415.019 325.19 415.058 325.264 415.126C325.336 415.193 325.378 415.284 325.379 415.38V417.205H331.238V415.38C331.238 415.332 331.249 415.285 331.268 415.241C331.288 415.197 331.316 415.158 331.353 415.124C331.389 415.091 331.432 415.064 331.48 415.046C331.527 415.028 331.578 415.019 331.629 415.019H341.008C341.06 415.019 341.111 415.028 341.159 415.046C341.206 415.064 341.249 415.091 341.286 415.124C341.322 415.158 341.351 415.197 341.37 415.241C341.39 415.285 341.4 415.332 341.4 415.38V417.205H347.259V415.38C347.259 415.332 347.269 415.285 347.289 415.241C347.309 415.197 347.337 415.158 347.373 415.124C347.41 415.091 347.453 415.064 347.501 415.046C347.548 415.028 347.599 415.019 347.65 415.019H357.029C357.081 415.019 357.132 415.028 357.179 415.046C357.227 415.064 357.27 415.091 357.306 415.124C357.343 415.158 357.371 415.197 357.391 415.241C357.41 415.285 357.42 415.332 357.42 415.38V417.205H363.287V415.38C363.287 415.332 363.297 415.285 363.317 415.241C363.336 415.197 363.365 415.158 363.401 415.124C363.437 415.091 363.481 415.064 363.528 415.046C363.576 415.028 363.627 415.019 363.678 415.019H373.057C373.159 415.02 373.258 415.059 373.33 415.126C373.402 415.193 373.442 415.285 373.441 415.38V417.205H379.307V415.38C379.307 415.332 379.318 415.285 379.337 415.241C379.357 415.197 379.385 415.158 379.422 415.124C379.458 415.091 379.501 415.064 379.549 415.046C379.596 415.028 379.647 415.019 379.698 415.019H389.078C389.129 415.019 389.18 415.028 389.228 415.046C389.275 415.064 389.318 415.091 389.355 415.124C389.391 415.158 389.42 415.197 389.439 415.241C389.459 415.285 389.469 415.332 389.469 415.38V417.205H395.328V415.38C395.328 415.332 395.338 415.285 395.358 415.241C395.378 415.197 395.406 415.158 395.442 415.124C395.479 415.091 395.522 415.064 395.57 415.046C395.617 415.028 395.668 415.019 395.719 415.019H405.098C405.15 415.019 405.201 415.028 405.248 415.046C405.296 415.064 405.339 415.091 405.375 415.124C405.412 415.158 405.44 415.197 405.46 415.241C405.479 415.285 405.489 415.332 405.489 415.38V417.205H432.845C434.076 417.204 435.297 417.428 436.434 417.863C437.573 418.299 438.607 418.937 439.478 419.741C440.349 420.546 441.039 421.5 441.511 422.551C441.982 423.603 442.224 424.729 442.224 425.866Z" fill="#E0DEDE"/>
<path id="Vector 11" d="M532.907 432.922H21V434.212H532.907V432.922Z" fill="white"/>
<path id="Vector 12" d="M417.113 261.004H300.874V258.791H248.167V261.004H131.448C129.363 261.004 127.363 261.769 125.889 263.13C124.414 264.493 123.585 266.339 123.585 268.265V415.251C123.585 417.177 124.414 419.024 125.889 420.386C127.363 421.747 129.363 422.512 131.448 422.512H417.113C419.198 422.512 421.198 421.747 422.673 420.386C424.148 419.024 424.976 417.177 424.976 415.251V268.265C424.976 267.312 424.773 266.367 424.377 265.486C423.982 264.605 423.403 263.805 422.673 263.13C421.943 262.457 421.076 261.922 420.122 261.557C419.168 261.192 418.146 261.004 417.113 261.004Z" fill="#E0DEDE"/>
<path id="Vector 14" d="M275.208 331.212C284.85 331.212 292.667 323.993 292.667 315.088C292.667 306.184 284.85 298.965 275.208 298.965C265.565 298.965 257.748 306.184 257.748 315.088C257.748 323.993 265.565 331.212 275.208 331.212Z" fill="#3B6978"/>
<path id="Vector 16" d="M42.6148 412.218V434.145H66.3593V412.218H42.6148ZM65.3258 433.191H43.6414V413.172H65.3258V433.191Z" fill="white"/>
<path id="Vector 15" d="M54.4842 426.406H34.9299V444.464H54.4842V426.406Z" fill="white"/>
<path id="Vector 18" d="M495.16 412.218V434.145H518.905V412.218H495.16ZM517.871 433.191H496.187V413.172H517.871V433.191Z" fill="white"/>
<path id="Vector 17" d="M507.03 426.406H487.475V444.464H507.03V426.406Z" fill="white"/>
<g id="leaf-left">
<path id="Vector 33" d="M83.9192 386.763C84.5708 407.369 71.5329 414.92 55.1714 415.361C54.7915 415.371 54.413 415.378 54.0365 415.38C53.2781 415.386 52.5267 415.374 51.7822 415.345C36.9851 414.778 25.2721 407.524 24.6661 388.361C24.039 368.53 50.6934 342.763 52.6936 340.857L52.6971 340.855C52.7732 340.782 52.8123 340.746 52.8123 340.746C52.8123 340.746 83.2676 366.16 83.9192 386.763Z" fill="#41926A"/>
<path id="Vector 34" d="M53.9939 412.238L64.3871 397.965L54.0149 413.774L54.0365 415.38C53.2781 415.386 52.5266 415.374 51.7822 415.345L52.2976 394.7L52.2836 394.54L52.3025 394.51L52.352 392.559L40.9701 377.298L52.3388 391.099L52.3793 391.511L52.7683 375.913L42.9374 360.091L52.7962 373.172L52.6935 340.857V340.749L52.697 340.855L53.3493 366.324L62.3094 355.979L53.3786 368.518L53.5742 382.47L61.8192 368.853L53.6049 384.522L53.7139 392.28L65.7042 373.312L53.7502 394.987L53.9939 412.238Z" fill="#3F3D56"/>
</g>
<g id="leaf-right">
<path id="Vector 35" d="M536.465 386.763C537.116 407.369 524.079 414.92 507.717 415.361C507.337 415.371 506.959 415.378 506.582 415.38C505.824 415.386 505.072 415.374 504.328 415.345C489.531 414.778 477.818 407.524 477.211 388.361C476.584 368.53 503.239 342.763 505.239 340.857L505.243 340.855C505.319 340.782 505.358 340.746 505.358 340.746C505.358 340.746 535.813 366.16 536.465 386.763Z" fill="#41926A"/>
<path id="Vector 36" d="M506.54 412.238L516.933 397.965L506.561 413.774L506.582 415.38C505.824 415.386 505.072 415.374 504.328 415.345L504.843 394.7L504.829 394.54L504.849 394.51L504.898 392.559L493.516 377.298L504.885 391.099L504.925 391.511L505.314 375.913L495.483 360.091L505.342 373.172L505.239 340.857V340.749L505.243 340.855L505.895 366.324L514.855 355.979L505.925 368.518L506.12 382.47L514.365 368.853L506.151 384.522L506.26 392.28L518.25 373.312L506.296 394.987L506.54 412.238Z" fill="#3F3D56"/>
</g>
</g>
<path id="Vector_2" d="M474.5 160C448.266 160 427 142.539 427 121C427 99.4611 448.266 82 474.5 82C500.734 82 522 99.4611 522 121C522 142.539 500.734 160 474.5 160Z" fill="#FFECE1"/>
<path id="Vector_3" d="M468.007 80.3342C472.319 79.8886 476.681 79.8886 480.993 80.3342C490.598 81.3578 499.639 84.5975 507.044 89.6678C514.449 94.7381 519.908 101.427 522.77 108.94C524.073 112.364 524.811 115.913 524.963 119.495C524.986 119.993 525 120.496 525 121C524.986 131.871 519.661 142.293 510.194 149.979C500.726 157.666 487.89 161.989 474.5 162C473.425 162 472.35 161.971 471.289 161.919C468.8 161.792 466.326 161.513 463.887 161.086C452.244 159.053 441.86 153.745 434.569 146.1C427.279 138.454 423.55 128.962 424.043 119.301C424.536 109.64 429.218 100.431 437.262 93.3011C445.307 86.1712 456.196 81.5785 468.007 80.3342ZM458.694 158.708H458.701C462.768 159.835 467.001 160.519 471.289 160.741C472.35 160.799 473.425 160.829 474.5 160.829C487.506 160.816 499.974 156.616 509.171 149.149C518.368 141.682 523.541 131.56 523.557 121C523.557 120.496 523.543 119.993 523.521 119.495C523.025 109.204 517.646 99.4682 508.508 92.3253C499.371 85.1824 487.184 81.1849 474.5 81.1712C462.877 81.1719 451.633 84.5223 442.769 90.6258C433.906 96.7294 427.999 105.189 426.102 114.499C424.204 123.808 426.438 133.361 432.407 141.458C438.376 149.555 447.692 155.668 458.694 158.708Z" fill="#7D5A5A"/>
<path id="Vector_4" d="M473 85H474V93H473V85Z" fill="#7D5A5A"/>
<path id="Vector_5" d="M507.125 96L508 96.8747L501.876 103L501 102.125L507.125 96Z" fill="#7D5A5A"/>
<path id="Vector_6" d="M520 120V121H511V120H520Z" fill="#7D5A5A"/>
<path id="Vector_7" d="M506 145.25L505.125 146L499 140.75L499.876 140L506 145.25Z" fill="#7D5A5A"/>
<path id="Vector_8" d="M450 102.125L448.999 103L442 96.8747L443.001 96L450 102.125Z" fill="#7D5A5A"/>
<path id="Vector_9" d="M440 120V121H430V120H440Z" fill="#7D5A5A"/>
<path id="Vector_10" d="M447.999 140L449 140.75L442.001 146L441 145.25L447.999 140Z" fill="#7D5A5A"/>
<path id="Vector_11" d="M474 149H475V157H474V149Z" fill="#7D5A5A"/>
<path id="Vector_12" d="M468 70H480V81H468V70Z" fill="#7D5A5A"/>
<path id="Vector_13" d="M474 72C465.163 72 458 69.7608 458 67C458 64.2385 465.163 62 474 62C482.836 62 490 64.2385 490 67C490 69.7608 482.836 72 474 72Z" fill="#7D5A5A"/>
<path id="clock-hand" d="M472 99H476V121H472V99Z" fill="#7D5A5A"/>
<path id="Vector_14" d="M474 127C470.686 127 468 124.314 468 121C468 117.686 470.686 115 474 115C477.314 115 480 117.686 480 121C480 124.314 477.314 127 474 127Z" fill="#7D5A5A"/>
<path id="Vector_15" d="M414 160H540V161H414V160Z" fill="#7D5A5A"/>
<path id="Vector_16" d="M205 120.781C205 122.559 203.091 124 200.739 124H9.26136C6.90795 124 5 122.559 5 120.781V7.21871C5 5.44107 6.90795 4 9.26136 4H200.739C203.091 4 205 5.44107 205 7.21871V120.781ZM5.475 120.343C5.475 122.121 7.38295 123.562 9.73636 123.562H200.264C202.616 123.562 204.525 122.121 204.525 120.343V7.65668C204.525 5.87905 202.616 4.43797 200.264 4.43797H9.73636C7.38295 4.43797 5.475 5.87905 5.475 7.65668V120.343Z" fill="#6153FD"/>
<path id="Vector_17" d="M205 120.781C205 122.559 203.091 124 200.739 124H9.26136C6.90795 124 5 122.559 5 120.781V7.21871C5 5.44107 6.90795 4 9.26136 4H200.739C203.091 4 205 5.44107 205 7.21871V120.781ZM5.475 120.343C5.475 122.121 7.38295 123.562 9.73636 123.562H200.264C202.616 123.562 204.525 122.121 204.525 120.343V7.65668C204.525 5.87905 202.616 4.43797 200.264 4.43797H9.73636C7.38295 4.43797 5.475 5.87905 5.475 7.65668V120.343Z" fill="url(#paint0_linear)"/>
<path id="Vector_18" d="M126 59H91V63H126V59Z" fill="#DDDDDD"/>
<path id="Vector_19" d="M177 59H142V63H177V59Z" fill="#DDDDDD"/>
<path id="Vector_20" d="M126 81H91V85H126V81Z" fill="#DDDDDD"/>
<path id="Vector_21" d="M182 70H92V74H182V70Z" fill="#DDDDDD"/>
<path id="Vector_22" d="M194 110H17V121H194V110Z" fill="#3B6978"/>
<path id="Vector_23" d="M192 23H84V50H192V23Z" fill="#3B6978"/>
<path id="Vector_24" d="M88.2078 33.4045C88.021 33.4045 87.8661 33.3571 87.7389 33.2623C87.6117 33.1675 87.5467 33.0505 87.5467 32.9115V26.493C87.5467 26.3476 87.6117 26.2307 87.7389 26.1422C87.8661 26.0474 88.021 26 88.2078 26C88.4622 26 88.6569 26.0885 88.7925 26.2655L92.5697 31.9066L96.2426 26.2655C96.3782 26.0885 96.5729 26 96.8272 26C97.0141 26 97.172 26.0474 97.2992 26.1422C97.4263 26.2307 97.4884 26.3476 97.4884 26.493V32.9115C97.4884 33.0505 97.4209 33.1675 97.2853 33.2623C97.1581 33.3571 97.0056 33.4045 96.8272 33.4045C96.641 33.4045 96.4855 33.3571 96.3583 33.2623C96.2312 33.1675 96.1661 33.0505 96.1661 32.9115V28.1995L93.0898 32.8736C92.9458 33.0379 92.7565 33.1201 92.519 33.1201C92.2394 33.1201 92.0357 33.0221 91.9085 32.8262L88.869 28.2849V32.9115C88.869 33.0505 88.8069 33.1675 88.6798 33.2623C88.5526 33.3571 88.3941 33.4045 88.2078 33.4045ZM104.701 33.4424C103.998 33.4424 103.371 33.3318 102.82 33.1106C102.278 32.8831 101.851 32.5734 101.537 32.1815C101.232 31.7833 101.079 31.3282 101.079 30.8162C101.079 30.298 101.223 29.8429 101.512 29.451C101.808 29.0528 102.215 28.7431 102.732 28.5219C103.249 28.2944 103.842 28.1806 104.512 28.1806C105.173 28.1806 105.741 28.2912 106.216 28.5124C106.69 28.7273 107.049 29.0275 107.295 29.4131C107.549 29.7923 107.676 30.2316 107.676 30.7309C107.676 30.851 107.622 30.9522 107.512 31.0343C107.402 31.1101 107.261 31.1481 107.091 31.1481H102.26C102.354 31.5842 102.622 31.9413 103.063 32.2194C103.512 32.4912 104.057 32.6271 104.701 32.6271C104.964 32.6271 105.233 32.5923 105.504 32.5228C105.784 32.4469 106.007 32.3616 106.176 32.2668C106.303 32.1973 106.439 32.1625 106.583 32.1625C106.735 32.1562 106.868 32.1878 106.979 32.2573C107.123 32.3521 107.199 32.4564 107.207 32.5702C107.216 32.684 107.148 32.7819 107.004 32.8641C106.716 33.0347 106.354 33.1738 105.922 33.2813C105.498 33.3887 105.091 33.4424 104.701 33.4424ZM104.512 28.996C103.885 28.996 103.379 29.1255 102.998 29.3847C102.616 29.6438 102.376 29.9788 102.275 30.3896H106.507C106.43 29.9851 106.224 29.6533 105.885 29.3941C105.546 29.1286 105.089 28.996 104.512 28.996ZM111.493 33.4045C111.069 33.4045 110.857 33.2465 110.857 32.9305V28.6926C110.857 28.3765 111.069 28.2185 111.493 28.2185C111.917 28.2185 112.129 28.3765 112.129 28.6926V28.8727C112.383 28.6515 112.691 28.4777 113.055 28.3512C113.428 28.2248 113.832 28.1616 114.265 28.1616C114.773 28.1616 115.149 28.2248 115.395 28.3512C115.649 28.4713 115.748 28.6167 115.689 28.7873C115.646 28.9201 115.561 29.0086 115.434 29.0528C115.307 29.0907 115.158 29.0971 114.988 29.0718C114.446 28.9896 113.959 28.9833 113.527 29.0528C113.095 29.1224 112.75 29.2519 112.496 29.4415C112.25 29.6311 112.129 29.8713 112.129 30.1621V32.9305C112.129 33.2465 111.917 33.4045 111.493 33.4045ZM121.209 33.4424C120.522 33.4424 119.918 33.3318 119.392 33.1106C118.867 32.8831 118.451 32.5734 118.146 32.1815C117.85 31.7833 117.7 31.3282 117.7 30.8162C117.7 30.298 117.85 29.8429 118.146 29.451C118.451 29.0528 118.867 28.7431 119.392 28.5219C119.918 28.2944 120.522 28.1806 121.209 28.1806C121.887 28.1806 122.489 28.2944 123.015 28.5219C123.54 28.7431 123.952 29.0528 124.249 29.451C124.554 29.8429 124.707 30.298 124.707 30.8162C124.707 31.3282 124.557 31.7833 124.26 32.1815C123.964 32.5734 123.554 32.8831 123.028 33.1106C122.503 33.3318 121.896 33.4424 121.209 33.4424ZM121.209 32.5892C121.65 32.5892 122.04 32.5133 122.379 32.3616C122.718 32.2099 122.981 32.0013 123.167 31.7359C123.362 31.4704 123.461 31.1639 123.461 30.8162C123.461 30.4686 123.362 30.1621 123.167 29.8966C122.981 29.6248 122.718 29.4131 122.379 29.2614C122.04 29.1097 121.65 29.0339 121.209 29.0339C120.768 29.0339 120.378 29.1097 120.04 29.2614C119.7 29.4131 119.435 29.6248 119.24 29.8966C119.045 30.1621 118.946 30.4686 118.946 30.8162C118.946 31.1639 119.045 31.4704 119.24 31.7359C119.435 32.0013 119.7 32.2099 120.04 32.3616C120.378 32.5133 120.768 32.5892 121.209 32.5892ZM134.2 33.4045C134.013 33.4045 133.857 33.3571 133.73 33.2623C133.604 33.1675 133.539 33.0505 133.539 32.9115V26.493C133.539 26.3476 133.604 26.2307 133.73 26.1422C133.857 26.0474 134.013 26 134.2 26H136.502C137.231 26 137.892 26.0916 138.486 26.275C139.087 26.4519 139.607 26.7079 140.048 27.0429C140.488 27.3716 140.828 27.7603 141.065 28.209C141.302 28.6578 141.421 29.1539 141.421 29.6975C141.421 30.2411 141.302 30.7404 141.065 31.1955C140.828 31.6443 140.488 32.0361 140.048 32.3711C139.607 32.6998 139.087 32.9558 138.486 33.139C137.892 33.316 137.231 33.4045 136.502 33.4045H134.2ZM134.86 32.5323H136.502C137.214 32.5323 137.841 32.4122 138.384 32.172C138.935 31.9255 139.367 31.5905 139.68 31.1671C139.994 30.7373 140.149 30.2474 140.149 29.6975C140.149 29.1413 139.994 28.6515 139.68 28.228C139.367 27.8045 138.935 27.4727 138.384 27.2325C137.841 26.9923 137.214 26.8722 136.502 26.8722H134.86V32.5323ZM145.67 33.4045C145.483 33.4045 145.328 33.3603 145.201 33.2718C145.082 33.177 145.023 33.06 145.023 32.921V28.702C145.023 28.5567 145.082 28.4397 145.201 28.3512C145.328 28.2628 145.483 28.2185 145.67 28.2185C145.865 28.2185 146.023 28.2628 146.142 28.3512C146.261 28.4397 146.32 28.5567 146.32 28.702V32.921C146.32 33.06 146.261 33.177 146.142 33.2718C146.023 33.3603 145.865 33.4045 145.67 33.4045ZM145.67 27.3747C145.441 27.3747 145.243 27.3147 145.074 27.1946C144.913 27.0682 144.831 26.9196 144.831 26.749C144.831 26.5783 144.913 26.4329 145.074 26.3129C145.243 26.1865 145.441 26.1233 145.67 26.1233C145.899 26.1233 146.094 26.1865 146.255 26.3129C146.424 26.4329 146.509 26.5783 146.509 26.749C146.509 26.9196 146.424 27.0682 146.255 27.1946C146.094 27.3147 145.899 27.3747 145.67 27.3747ZM153.154 33.4424C152.518 33.4424 151.956 33.3318 151.464 33.1106C150.981 32.8831 150.6 32.5734 150.32 32.1815C150.04 31.7833 149.899 31.3282 149.899 30.8162C149.899 30.298 150.049 29.8429 150.346 29.451C150.651 29.0528 151.066 28.7431 151.592 28.5219C152.117 28.2944 152.722 28.1806 153.408 28.1806C154.086 28.1806 154.688 28.2944 155.213 28.5219C155.739 28.7431 156.151 29.0528 156.448 29.451C156.753 29.8429 156.906 30.298 156.906 30.8162V32.8641C156.906 33.3634 156.756 33.8153 156.459 34.2198C156.163 34.6307 155.747 34.9562 155.213 35.1964C154.688 35.4366 154.078 35.5566 153.383 35.5566C152.781 35.5566 152.219 35.4682 151.693 35.2912C151.168 35.1142 150.721 34.8551 150.357 34.5138C150.247 34.4063 150.204 34.2957 150.229 34.1819C150.264 34.0682 150.348 33.9765 150.484 33.907C150.637 33.8311 150.795 33.8058 150.956 33.8311C151.125 33.8564 151.261 33.9196 151.363 34.0207C151.592 34.2357 151.88 34.4032 152.227 34.5232C152.575 34.6434 152.968 34.7034 153.408 34.7034C153.815 34.7034 154.188 34.6307 154.527 34.4853C154.875 34.34 155.151 34.1251 155.355 33.8406C155.558 33.5562 155.66 33.2086 155.66 32.7977V32.3332C155.397 32.6745 155.049 32.9463 154.617 33.1485C154.185 33.3445 153.696 33.4424 153.154 33.4424ZM153.408 32.5892C153.849 32.5892 154.239 32.5133 154.578 32.3616C154.917 32.2099 155.18 32.0013 155.366 31.7359C155.561 31.4704 155.66 31.1639 155.66 30.8162C155.66 30.4686 155.561 30.1621 155.366 29.8966C155.18 29.6248 154.917 29.4131 154.578 29.2614C154.239 29.1097 153.849 29.0339 153.408 29.0339C152.968 29.0339 152.578 29.1097 152.238 29.2614C151.9 29.4131 151.634 29.6248 151.439 29.8966C151.244 30.1621 151.145 30.4686 151.145 30.8162C151.145 31.1639 151.244 31.4704 151.439 31.7359C151.634 32.0013 151.9 32.2099 152.238 32.3616C152.578 32.5133 152.968 32.5892 153.408 32.5892ZM161.138 33.4045C160.952 33.4045 160.793 33.3603 160.666 33.2718C160.547 33.177 160.488 33.06 160.488 32.921V28.702C160.488 28.5567 160.547 28.4397 160.666 28.3512C160.793 28.2628 160.952 28.2185 161.138 28.2185C161.333 28.2185 161.488 28.2628 161.607 28.3512C161.726 28.4397 161.785 28.5567 161.785 28.702V32.921C161.785 33.06 161.726 33.177 161.607 33.2718C161.488 33.3603 161.333 33.4045 161.138 33.4045ZM161.138 27.3747C160.909 27.3747 160.708 27.3147 160.539 27.1946C160.378 27.0682 160.299 26.9196 160.299 26.749C160.299 26.5783 160.378 26.4329 160.539 26.3129C160.708 26.1865 160.909 26.1233 161.138 26.1233C161.367 26.1233 161.562 26.1865 161.723 26.3129C161.893 26.4329 161.977 26.5783 161.977 26.749C161.977 26.9196 161.893 27.0682 161.723 27.1946C161.562 27.3147 161.367 27.3747 161.138 27.3747ZM168.252 33.4045C167.828 33.4045 167.447 33.3255 167.108 33.1675C166.769 33.0032 166.503 32.7819 166.308 32.5038C166.113 32.2257 166.015 31.9129 166.015 31.5652V29.2235H165.429C165.252 29.2235 165.107 29.1856 164.997 29.1097C164.887 29.0339 164.833 28.939 164.833 28.8253C164.833 28.6989 164.887 28.5977 164.997 28.5219C165.107 28.446 165.252 28.4081 165.429 28.4081H166.015V27.0429C166.015 26.9039 166.074 26.7901 166.192 26.7016C166.311 26.6131 166.464 26.5688 166.65 26.5688C166.837 26.5688 166.989 26.6131 167.108 26.7016C167.226 26.7901 167.286 26.9039 167.286 27.0429V28.4081H168.368C168.546 28.4081 168.69 28.446 168.8 28.5219C168.91 28.5977 168.964 28.6989 168.964 28.8253C168.964 28.939 168.91 29.0339 168.8 29.1097C168.69 29.1856 168.546 29.2235 168.368 29.2235H167.286V31.5652C167.286 31.8181 167.379 32.0298 167.565 32.2005C167.752 32.3711 167.981 32.4564 168.252 32.4564H168.684C168.836 32.4564 168.964 32.5007 169.065 32.5892C169.176 32.6777 169.232 32.7914 169.232 32.9305C169.232 33.0695 169.159 33.1833 169.015 33.2718C168.879 33.3603 168.701 33.4045 168.481 33.4045H168.252ZM175.25 33.4424C174.631 33.4424 174.078 33.3287 173.586 33.1011C173.094 32.8673 172.705 32.5544 172.416 32.1625C172.136 31.7643 171.995 31.3156 171.995 30.8162C171.995 30.3169 172.148 29.8682 172.453 29.47C172.767 29.0718 173.187 28.7589 173.713 28.5314C174.247 28.2975 174.843 28.1806 175.504 28.1806C176.165 28.1806 176.758 28.2975 177.284 28.5314C177.81 28.7589 178.225 29.0718 178.53 29.47C178.844 29.8682 179.002 30.3169 179.002 30.8162V32.9305C179.002 33.0695 178.937 33.1864 178.81 33.2813C178.691 33.3698 178.538 33.414 178.352 33.414C178.166 33.414 178.01 33.3698 177.883 33.2813C177.764 33.1864 177.705 33.0695 177.705 32.9305V32.5797C177.408 32.8451 177.047 33.0569 176.623 33.2149C176.208 33.3666 175.75 33.4424 175.25 33.4424ZM175.504 32.5892C175.936 32.5892 176.323 32.5133 176.663 32.3616C177.001 32.2036 177.267 31.9919 177.462 31.7264C177.657 31.4547 177.756 31.1513 177.756 30.8162C177.756 30.4749 177.657 30.1716 177.462 29.9061C177.267 29.6343 177.001 29.4226 176.663 29.2709C176.323 29.1129 175.936 29.0339 175.504 29.0339C175.081 29.0339 174.696 29.1129 174.349 29.2709C174.01 29.4226 173.738 29.6343 173.535 29.9061C173.34 30.1716 173.241 30.4749 173.241 30.8162C173.241 31.1513 173.34 31.4547 173.535 31.7264C173.738 31.9919 174.01 32.2036 174.349 32.3616C174.696 32.5133 175.081 32.5892 175.504 32.5892ZM184.11 33.4045C183.737 33.4045 183.406 33.3287 183.118 33.177C182.83 33.0253 182.604 32.8199 182.443 32.5607C182.282 32.2953 182.203 31.9919 182.203 31.6505V26.4741C182.203 26.335 182.262 26.2212 182.381 26.1327C182.499 26.0442 182.652 26 182.839 26C183.025 26 183.177 26.0442 183.296 26.1327C183.415 26.2212 183.474 26.335 183.474 26.4741V31.6505C183.474 31.8844 183.534 32.0772 183.652 32.2289C183.771 32.3806 183.924 32.4564 184.11 32.4564H184.426C184.596 32.4564 184.731 32.5007 184.833 32.5892C184.943 32.6777 185 32.7914 185 32.9305C185 33.0695 184.918 33.1833 184.757 33.2718C184.596 33.3603 184.389 33.4045 184.135 33.4045H184.11ZM90.6994 44.8763C90.157 44.8763 89.6399 44.8131 89.1487 44.6867C88.6569 44.5603 88.2301 44.3833 87.8631 44.1557C87.5015 43.9282 87.2333 43.6659 87.0633 43.3688C86.9789 43.2361 86.9789 43.1129 87.0633 42.9991C87.1567 42.8853 87.3092 42.8127 87.5213 42.781C87.6738 42.7557 87.8233 42.7747 87.9674 42.8379C88.1198 42.8948 88.2332 42.9833 88.3091 43.1034C88.411 43.2614 88.5779 43.4068 88.8063 43.5395C89.0438 43.6722 89.3265 43.7797 89.6568 43.8618C89.9876 43.944 90.3348 43.9851 90.6994 43.9851C91.1063 43.9851 91.4794 43.9377 91.8181 43.8429C92.1659 43.7481 92.4455 43.6122 92.6577 43.4352C92.8692 43.2519 92.9765 43.0275 92.9765 42.7621C92.9765 42.4271 92.7987 42.1269 92.4425 41.8614C92.0953 41.5959 91.5185 41.4316 90.7139 41.3684C89.6628 41.2925 88.8347 41.0618 88.2331 40.6763C87.6316 40.2908 87.3321 39.8135 87.3321 39.2447C87.3321 38.8276 87.487 38.4736 87.801 38.1828C88.1144 37.8921 88.5381 37.6709 89.0721 37.5192C89.6146 37.3675 90.2167 37.2917 90.8772 37.2917C91.6487 37.2917 92.2816 37.4086 92.7734 37.6425C93.2646 37.8763 93.6714 38.186 93.9939 38.5715C94.1126 38.7106 94.1578 38.8433 94.1319 38.9697C94.115 39.0898 94.0361 39.1846 93.892 39.2542C93.7311 39.33 93.5557 39.3458 93.3695 39.3016C93.1826 39.2574 93.0446 39.1751 92.9512 39.0551C92.7396 38.7833 92.4624 38.5715 92.1237 38.4198C91.7928 38.2682 91.3661 38.1892 90.8411 38.1828C90.2137 38.1765 89.6881 38.265 89.2644 38.4483C88.8407 38.6253 88.6285 38.9002 88.6285 39.2731C88.6285 39.4627 88.6906 39.6461 88.8178 39.823C88.9534 39.9937 89.1963 40.1422 89.541 40.2686C89.9003 40.395 90.4083 40.4835 91.0695 40.5341C92.0785 40.6099 92.8608 40.8406 93.4201 41.2262C93.9879 41.6054 94.2735 42.1079 94.2735 42.7336C94.2735 43.0939 94.1717 43.4068 93.9686 43.6722C93.7733 43.9377 93.5051 44.1621 93.1658 44.3454C92.8355 44.5223 92.4539 44.6551 92.0218 44.7436C91.5981 44.832 91.1575 44.8763 90.6994 44.8763ZM98.3473 47C98.161 47 98.0025 46.9526 97.8754 46.8578C97.7572 46.7693 97.6976 46.6555 97.6976 46.5165V42.1932C97.706 41.6939 97.8645 41.2451 98.1695 40.847C98.4745 40.4487 98.8897 40.1359 99.4153 39.9083C99.9409 39.6745 100.534 39.5576 101.195 39.5576C101.865 39.5576 102.461 39.6745 102.986 39.9083C103.512 40.1359 103.927 40.4487 104.232 40.847C104.546 41.2451 104.704 41.6939 104.704 42.1932C104.704 42.6925 104.56 43.1413 104.272 43.5395C103.992 43.9314 103.605 44.2442 103.114 44.4781C102.622 44.7056 102.068 44.8194 101.449 44.8194C100.949 44.8194 100.486 44.7436 100.063 44.5919C99.6467 44.4339 99.2911 44.2221 98.9946 43.9567V46.5165C98.9946 46.6555 98.9349 46.7693 98.8162 46.8578C98.6975 46.9526 98.5426 47 98.3473 47ZM101.195 43.9661C101.627 43.9661 102.012 43.8903 102.351 43.7386C102.69 43.5806 102.958 43.3688 103.153 43.1034C103.356 42.8316 103.458 42.5282 103.458 42.1932C103.458 41.8519 103.356 41.5485 103.153 41.2831C102.958 41.0113 102.69 40.7995 102.351 40.6478C102.012 40.4898 101.627 40.4108 101.195 40.4108C100.771 40.4108 100.384 40.4898 100.037 40.6478C99.698 40.7995 99.4322 41.0113 99.2375 41.2831C99.0422 41.5485 98.9434 41.8519 98.9434 42.1932C98.9434 42.5282 99.0422 42.8316 99.2375 43.1034C99.4322 43.3688 99.698 43.5806 100.037 43.7386C100.384 43.8903 100.771 43.9661 101.195 43.9661ZM111.061 44.8194C110.442 44.8194 109.889 44.7056 109.397 44.4781C108.905 44.2442 108.516 43.9314 108.227 43.5395C107.947 43.1413 107.806 42.6925 107.806 42.1932C107.806 41.6939 107.959 41.2451 108.264 40.847C108.578 40.4487 108.998 40.1359 109.524 39.9083C110.058 39.6745 110.654 39.5576 111.315 39.5576C111.976 39.5576 112.57 39.6745 113.095 39.9083C113.621 40.1359 114.036 40.4487 114.341 40.847C114.654 41.2451 114.813 41.6939 114.813 42.1932V44.3074C114.813 44.4465 114.748 44.5634 114.621 44.6582C114.502 44.7467 114.349 44.791 114.163 44.791C113.976 44.791 113.821 44.7467 113.694 44.6582C113.575 44.5634 113.516 44.4465 113.516 44.3074V43.9567C113.219 44.2221 112.858 44.4339 112.434 44.5919C112.019 44.7436 111.561 44.8194 111.061 44.8194ZM111.315 43.9661C111.747 43.9661 112.134 43.8903 112.474 43.7386C112.812 43.5806 113.078 43.3688 113.273 43.1034C113.468 42.8316 113.567 42.5282 113.567 42.1932C113.567 41.8519 113.468 41.5485 113.273 41.2831C113.078 41.0113 112.812 40.7995 112.474 40.6478C112.134 40.4898 111.747 40.4108 111.315 40.4108C110.892 40.4108 110.507 40.4898 110.16 40.6478C109.821 40.7995 109.549 41.0113 109.346 41.2831C109.151 41.5485 109.052 41.8519 109.052 42.1932C109.052 42.5282 109.151 42.8316 109.346 43.1034C109.549 43.3688 109.821 43.5806 110.16 43.7386C110.507 43.8903 110.892 43.9661 111.315 43.9661ZM121.421 44.8194C120.743 44.8194 120.135 44.7056 119.601 44.4781C119.076 44.2442 118.661 43.9314 118.356 43.5395C118.059 43.1413 117.912 42.6925 117.912 42.1932C117.912 41.6812 118.059 41.2262 118.356 40.828C118.652 40.4298 119.059 40.1201 119.576 39.8989C120.093 39.6713 120.686 39.5576 121.356 39.5576C122.356 39.5576 123.187 39.842 123.848 40.4108C123.966 40.5119 124.009 40.6163 123.975 40.7237C123.941 40.8312 123.848 40.9259 123.695 41.0081C123.577 41.0714 123.447 41.0934 123.303 41.0745C123.159 41.0492 123.026 40.9923 122.907 40.9038C122.492 40.5751 121.975 40.4108 121.356 40.4108C120.703 40.4108 120.175 40.5751 119.768 40.9038C119.361 41.2262 119.158 41.656 119.158 42.1932C119.158 42.5345 119.251 42.8379 119.437 43.1034C119.633 43.3688 119.898 43.5806 120.237 43.7386C120.576 43.8903 120.972 43.9661 121.421 43.9661C121.997 43.9661 122.464 43.8555 122.819 43.6343C122.955 43.5521 123.093 43.5079 123.238 43.5016C123.382 43.4889 123.509 43.5174 123.619 43.5869C123.763 43.6754 123.845 43.7765 123.862 43.8903C123.879 43.9977 123.828 44.0957 123.709 44.1842C123.099 44.6076 122.336 44.8194 121.421 44.8194ZM130.696 44.8194C129.993 44.8194 129.365 44.7088 128.814 44.4876C128.272 44.2601 127.843 43.9503 127.529 43.5585C127.224 43.1603 127.071 42.7052 127.071 42.1932C127.071 41.6749 127.215 41.2199 127.504 40.828C127.8 40.4298 128.207 40.1201 128.724 39.8989C129.241 39.6713 129.834 39.5576 130.504 39.5576C131.165 39.5576 131.733 39.6682 132.208 39.8894C132.682 40.1043 133.044 40.4045 133.29 40.7901C133.544 41.1693 133.671 41.6086 133.671 42.1079C133.671 42.228 133.614 42.3291 133.505 42.4113C133.394 42.4871 133.256 42.525 133.086 42.525H128.255C128.349 42.9612 128.614 43.3183 129.055 43.5964C129.504 43.8682 130.052 44.004 130.696 44.004C130.959 44.004 131.225 43.9693 131.496 43.8998C131.776 43.8239 132.002 43.7386 132.171 43.6438C132.298 43.5742 132.434 43.5395 132.578 43.5395C132.73 43.5332 132.86 43.5648 132.971 43.6343C133.115 43.7291 133.191 43.8334 133.199 43.9472C133.208 44.0609 133.14 44.1589 132.996 44.2411C132.708 44.4118 132.349 44.5508 131.917 44.6582C131.493 44.7657 131.086 44.8194 130.696 44.8194ZM130.504 40.3729C129.877 40.3729 129.374 40.5025 128.993 40.7616C128.611 41.0208 128.368 41.3557 128.267 41.7666H132.501C132.425 41.3621 132.216 41.0302 131.877 40.7711C131.538 40.5057 131.081 40.3729 130.504 40.3729Z" fill="white"/>
<path id="Vector_25" d="M168.5 14C170.985 14 173 12.6568 173 11C173 9.34316 170.985 8 168.5 8C166.015 8 164 9.34316 164 11C164 12.6568 166.015 14 168.5 14Z" fill="#A9DADE"/>
<path id="Vector_26" d="M182.5 14C184.985 14 187 12.6568 187 11C187 9.34316 184.985 8 182.5 8C180.015 8 178 9.34316 178 11C178 12.6568 180.015 14 182.5 14Z" fill="#A9DADE"/>
<path id="Vector_27" d="M197 14C199.209 14 201 12.6568 201 11C201 9.34316 199.209 8 197 8C194.791 8 193 9.34316 193 11C193 12.6568 194.791 14 197 14Z" fill="#A9DADE"/>
<path id="Vector_28" d="M36.5 83C48.9252 83 59 74.2697 59 63.5001C59 52.7304 48.9252 44 36.5 44C24.0735 44 14 52.7304 14 63.5001C14 74.2697 24.0735 83 36.5 83Z" fill="#3B6978"/>
<path id="Vector_29" d="M49.8674 118.147C49.1496 118.147 48.494 118 47.9007 117.705C47.3148 117.411 46.8496 117.009 46.5054 116.502C46.1685 115.994 46 115.436 46 114.828C46 114.219 46.1685 113.661 46.5054 113.154C46.8496 112.646 47.3184 112.245 47.9117 111.95C48.505 111.655 49.1642 111.508 49.8893 111.508C50.6145 111.508 51.27 111.652 51.856 111.94C52.4493 112.229 52.9144 112.627 53.2513 113.135C53.5882 113.636 53.7567 114.194 53.7567 114.809C53.7567 115.423 53.5846 115.987 53.2403 116.502C52.8961 117.009 52.4273 117.411 51.834 117.705C51.2407 118 50.5852 118.147 49.8674 118.147ZM49.8674 117.724C50.4973 117.724 51.0686 117.596 51.5813 117.339C52.094 117.082 52.4969 116.73 52.7898 116.285C53.0902 115.84 53.2403 115.348 53.2403 114.809C53.2403 114.27 53.0938 113.781 52.8008 113.342C52.5152 112.903 52.116 112.558 51.6033 112.307C51.0979 112.056 50.5266 111.931 49.8893 111.931C49.2594 111.931 48.6844 112.06 48.1644 112.317C47.6517 112.574 47.2488 112.925 46.9558 113.37C46.6629 113.809 46.5164 114.295 46.5164 114.828C46.5164 115.361 46.6629 115.85 46.9558 116.295C47.2488 116.734 47.6517 117.082 48.1644 117.339C48.6771 117.596 49.2448 117.724 49.8674 117.724ZM49.9882 116.765C49.5414 116.765 49.1422 116.683 48.7906 116.52C48.4391 116.357 48.1644 116.129 47.9666 115.834C47.7689 115.539 47.67 115.204 47.67 114.828C47.67 114.451 47.7689 114.116 47.9666 113.821C48.1644 113.527 48.4391 113.298 48.7906 113.135C49.1422 112.972 49.5414 112.89 49.9882 112.89C50.3691 112.89 50.717 112.959 51.032 113.097C51.3469 113.235 51.5923 113.42 51.7681 113.652L51.1418 114.038C50.8781 113.699 50.4899 113.53 49.9772 113.53C49.5524 113.53 49.2008 113.649 48.9225 113.887C48.6442 114.125 48.505 114.439 48.505 114.828C48.505 115.216 48.6442 115.53 48.9225 115.768C49.2008 116.006 49.5524 116.125 49.9772 116.125C50.4899 116.125 50.8781 115.956 51.1418 115.618L51.7681 115.994C51.5923 116.232 51.3469 116.42 51.032 116.558C50.717 116.696 50.3691 116.765 49.9882 116.765ZM65.5162 118.119L65.5053 113.323L62.7253 117.32H62.22L59.4403 113.351V118.119H58.3856V111.536H59.2865L62.4946 116.163L65.6591 111.536H66.56L66.571 118.119H65.5162ZM73.9877 115.655C73.9877 115.724 73.9804 115.815 73.9657 115.928H69.2414C69.3073 116.367 69.5307 116.721 69.9116 116.991C70.2998 117.254 70.7795 117.386 71.3509 117.386C72.0467 117.386 72.607 117.185 73.0318 116.784L73.6141 117.367C73.3505 117.63 73.0208 117.831 72.6253 117.969C72.2371 118.107 71.8013 118.176 71.3179 118.176C70.7026 118.176 70.1569 118.069 69.6809 117.856C69.2048 117.636 68.8349 117.332 68.5712 116.944C68.3148 116.555 68.1866 116.116 68.1866 115.627C68.1866 115.144 68.3112 114.708 68.5602 114.32C68.8166 113.931 69.1645 113.63 69.6039 113.417C70.0507 113.197 70.5525 113.088 71.1091 113.088C71.6658 113.088 72.1602 113.197 72.5924 113.417C73.0318 113.63 73.3724 113.931 73.6141 114.32C73.8632 114.708 73.9877 115.154 73.9877 115.655ZM71.1091 113.85C70.6037 113.85 70.1789 113.981 69.8347 114.245C69.4977 114.508 69.3 114.853 69.2414 115.279H72.9769C72.9183 114.859 72.7169 114.517 72.3726 114.254C72.0357 113.984 71.6145 113.85 71.1091 113.85ZM76.4634 113.972C76.6465 113.683 76.9175 113.464 77.2764 113.313C77.6353 113.163 78.0711 113.088 78.5838 113.088V113.962C78.5252 113.956 78.4447 113.953 78.3421 113.953C77.7708 113.953 77.3204 114.1 76.9907 114.395C76.6685 114.683 76.5073 115.097 76.5073 115.636V118.119H75.4526V113.135H76.4634V113.972ZM82.3236 118.176C81.745 118.176 81.2249 118.066 80.7635 117.846C80.3021 117.627 79.9395 117.326 79.6758 116.944C79.4194 116.555 79.2913 116.116 79.2913 115.627C79.2913 115.138 79.4194 114.702 79.6758 114.32C79.9395 113.931 80.3021 113.63 80.7635 113.417C81.2249 113.197 81.745 113.088 82.3236 113.088C82.9023 113.088 83.4186 113.197 83.8728 113.417C84.3342 113.63 84.6931 113.931 84.9495 114.32C85.2132 114.702 85.345 115.138 85.345 115.627C85.345 116.116 85.2132 116.555 84.9495 116.944C84.6931 117.326 84.3342 117.627 83.8728 117.846C83.4186 118.066 82.9023 118.176 82.3236 118.176ZM82.3236 117.386C82.6972 117.386 83.0304 117.313 83.3234 117.169C83.6237 117.019 83.8581 116.812 84.0266 116.549C84.195 116.279 84.2793 115.972 84.2793 115.627C84.2793 115.282 84.195 114.978 84.0266 114.715C83.8581 114.445 83.6237 114.238 83.3234 114.094C83.0304 113.95 82.6972 113.878 82.3236 113.878C81.9501 113.878 81.6131 113.95 81.3128 114.094C81.0199 114.238 80.7855 114.445 80.6097 114.715C80.4412 114.978 80.357 115.282 80.357 115.627C80.357 115.972 80.4412 116.279 80.6097 116.549C80.7855 116.812 81.0199 117.019 81.3128 117.169C81.6131 117.313 81.9501 117.386 82.3236 117.386ZM89.9082 111.536H93.1493C93.9623 111.536 94.6838 111.674 95.3137 111.95C95.9436 112.226 96.4307 112.614 96.7749 113.116C97.1265 113.611 97.3023 114.182 97.3023 114.828C97.3023 115.473 97.1265 116.047 96.7749 116.549C96.4307 117.044 95.9436 117.429 95.3137 117.705C94.6838 117.981 93.9623 118.119 93.1493 118.119H89.9082V111.536ZM93.0834 117.301C93.706 117.301 94.2516 117.197 94.7204 116.991C95.1965 116.784 95.5627 116.495 95.8191 116.125C96.0755 115.749 96.2036 115.317 96.2036 114.828C96.2036 114.339 96.0755 113.909 95.8191 113.539C95.5627 113.163 95.1965 112.871 94.7204 112.665C94.2516 112.458 93.706 112.354 93.0834 112.354H91.0069V117.301H93.0834ZM98.8313 113.135H99.886V118.119H98.8313V113.135ZM99.3587 112.176C99.1536 112.176 98.9815 112.119 98.8423 112.006C98.7105 111.893 98.6445 111.755 98.6445 111.592C98.6445 111.429 98.7105 111.292 98.8423 111.179C98.9815 111.06 99.1536 111 99.3587 111C99.5638 111 99.7322 111.056 99.8641 111.169C100.003 111.276 100.073 111.411 100.073 111.574C100.073 111.743 100.003 111.887 99.8641 112.006C99.7322 112.119 99.5638 112.176 99.3587 112.176ZM107.471 113.135V117.442C107.471 118.313 107.218 118.956 106.713 119.37C106.207 119.79 105.453 120 104.449 120C103.9 120 103.376 119.934 102.878 119.803C102.38 119.677 101.977 119.495 101.67 119.257L102.175 118.561C102.446 118.762 102.779 118.918 103.175 119.031C103.578 119.15 103.991 119.21 104.416 119.21C105.097 119.21 105.599 119.072 105.921 118.796C106.251 118.52 106.416 118.1 106.416 117.536V117.141C106.167 117.398 105.859 117.592 105.493 117.724C105.134 117.85 104.742 117.912 104.317 117.912C103.761 117.912 103.255 117.812 102.801 117.611C102.354 117.404 102.003 117.119 101.746 116.755C101.49 116.386 101.362 115.966 101.362 115.495C101.362 115.025 101.49 114.608 101.746 114.245C102.003 113.875 102.354 113.589 102.801 113.389C103.255 113.188 103.761 113.088 104.317 113.088C104.757 113.088 105.163 113.157 105.537 113.295C105.918 113.433 106.229 113.636 106.471 113.906V113.135H107.471ZM104.438 117.122C104.819 117.122 105.16 117.053 105.46 116.915C105.768 116.777 106.006 116.586 106.174 116.342C106.35 116.091 106.438 115.809 106.438 115.495C106.438 115.013 106.251 114.624 105.878 114.329C105.504 114.028 105.024 113.878 104.438 113.878C103.845 113.878 103.362 114.028 102.988 114.329C102.614 114.624 102.428 115.013 102.428 115.495C102.428 115.809 102.512 116.091 102.68 116.342C102.856 116.586 103.094 116.777 103.395 116.915C103.702 117.053 104.05 117.122 104.438 117.122ZM109.485 113.135H110.54V118.119H109.485V113.135ZM110.013 112.176C109.808 112.176 109.636 112.119 109.496 112.006C109.365 111.893 109.299 111.755 109.299 111.592C109.299 111.429 109.365 111.292 109.496 111.179C109.636 111.06 109.808 111 110.013 111C110.218 111 110.386 111.056 110.518 111.169C110.657 111.276 110.727 111.411 110.727 111.574C110.727 111.743 110.657 111.887 110.518 112.006C110.386 112.119 110.218 112.176 110.013 112.176ZM115.829 117.828C115.675 117.94 115.484 118.028 115.257 118.091C115.03 118.147 114.796 118.176 114.554 118.176C113.968 118.176 113.514 118.041 113.192 117.771C112.869 117.502 112.708 117.116 112.708 116.614V113.878H111.719V113.135H112.708V112.044H113.763V113.135H115.433V113.878H113.763V116.577C113.763 116.846 113.84 117.053 113.994 117.197C114.155 117.342 114.382 117.414 114.675 117.414C114.997 117.414 115.272 117.335 115.499 117.179L115.829 117.828ZM119.224 113.088C120.03 113.088 120.645 113.257 121.07 113.596C121.502 113.934 121.718 114.439 121.718 115.11V118.119H120.718V117.461C120.542 117.693 120.29 117.871 119.96 117.997C119.638 118.116 119.253 118.176 118.807 118.176C118.155 118.176 117.631 118.041 117.235 117.771C116.847 117.502 116.653 117.147 116.653 116.708C116.653 116.27 116.84 115.918 117.213 115.655C117.587 115.386 118.18 115.251 118.993 115.251H120.663V115.072C120.663 114.683 120.531 114.386 120.268 114.179C120.004 113.972 119.616 113.868 119.103 113.868C118.759 113.868 118.422 113.918 118.092 114.019C117.763 114.113 117.484 114.241 117.257 114.404L116.818 113.727C117.118 113.52 117.477 113.364 117.895 113.257C118.312 113.144 118.755 113.088 119.224 113.088ZM118.982 117.48C119.385 117.48 119.733 117.404 120.026 117.254C120.319 117.097 120.531 116.878 120.663 116.596V115.9H119.037C118.144 115.9 117.697 116.157 117.697 116.671C117.697 116.922 117.81 117.119 118.037 117.263C118.265 117.408 118.579 117.48 118.982 117.48ZM123.67 111.141H124.725V118.119H123.67V111.141ZM132.084 118.194C131.505 118.194 130.945 118.119 130.403 117.969C129.868 117.812 129.447 117.611 129.14 117.367L129.546 116.633C129.839 116.859 130.213 117.044 130.667 117.188C131.128 117.326 131.601 117.395 132.084 117.395C132.721 117.395 133.197 117.304 133.512 117.122C133.827 116.934 133.985 116.687 133.985 116.379C133.985 116.154 133.897 115.972 133.721 115.834C133.553 115.69 133.34 115.58 133.084 115.505C132.835 115.429 132.48 115.345 132.018 115.251C131.44 115.132 130.971 115.013 130.612 114.893C130.26 114.774 129.956 114.592 129.7 114.348C129.451 114.097 129.326 113.762 129.326 113.342C129.326 112.991 129.433 112.674 129.645 112.392C129.865 112.11 130.194 111.884 130.634 111.715C131.073 111.545 131.619 111.461 132.271 111.461C132.725 111.461 133.172 111.511 133.611 111.611C134.051 111.712 134.428 111.856 134.743 112.044L134.38 112.796C134.058 112.621 133.714 112.489 133.348 112.401C132.981 112.307 132.622 112.26 132.271 112.26C131.648 112.26 131.18 112.357 130.865 112.552C130.557 112.746 130.403 112.997 130.403 113.304C130.403 113.53 130.491 113.715 130.667 113.859C130.843 113.997 131.059 114.107 131.315 114.188C131.579 114.263 131.934 114.345 132.381 114.433C132.959 114.552 133.425 114.671 133.776 114.79C134.128 114.909 134.428 115.091 134.677 115.335C134.933 115.58 135.062 115.909 135.062 116.323C135.062 116.668 134.952 116.984 134.732 117.273C134.512 117.555 134.179 117.781 133.732 117.95C133.285 118.113 132.736 118.194 132.084 118.194ZM139.6 113.088C140.164 113.088 140.67 113.194 141.117 113.408C141.563 113.621 141.911 113.918 142.16 114.301C142.417 114.683 142.545 115.125 142.545 115.627C142.545 116.129 142.417 116.574 142.16 116.962C141.911 117.345 141.563 117.643 141.117 117.856C140.67 118.069 140.164 118.176 139.6 118.176C139.183 118.176 138.798 118.107 138.447 117.969C138.102 117.831 137.809 117.63 137.568 117.367V119.944H136.513V113.135H137.524V113.925C137.758 113.649 138.055 113.442 138.414 113.304C138.773 113.16 139.168 113.088 139.6 113.088ZM139.512 117.386C139.886 117.386 140.219 117.313 140.512 117.169C140.813 117.019 141.047 116.812 141.215 116.549C141.391 116.279 141.479 115.972 141.479 115.627C141.479 115.282 141.391 114.978 141.215 114.715C141.047 114.445 140.813 114.238 140.512 114.094C140.219 113.95 139.886 113.878 139.512 113.878C139.146 113.878 138.813 113.953 138.513 114.103C138.22 114.248 137.985 114.451 137.809 114.715C137.641 114.978 137.557 115.282 137.557 115.627C137.557 115.972 137.641 116.279 137.809 116.549C137.978 116.812 138.212 117.019 138.513 117.169C138.813 117.313 139.146 117.386 139.512 117.386ZM146.069 113.088C146.874 113.088 147.489 113.257 147.914 113.596C148.346 113.934 148.563 114.439 148.563 115.11V118.119H147.563V117.461C147.387 117.693 147.134 117.871 146.805 117.997C146.482 118.116 146.098 118.176 145.651 118.176C144.999 118.176 144.475 118.041 144.08 117.771C143.692 117.502 143.498 117.147 143.498 116.708C143.498 116.27 143.684 115.918 144.058 115.655C144.431 115.386 145.025 115.251 145.838 115.251H147.508V115.072C147.508 114.683 147.376 114.386 147.112 114.179C146.849 113.972 146.46 113.868 145.948 113.868C145.603 113.868 145.266 113.918 144.937 114.019C144.607 114.113 144.329 114.241 144.102 114.404L143.662 113.727C143.963 113.52 144.322 113.364 144.739 113.257C145.157 113.144 145.6 113.088 146.069 113.088ZM145.827 117.48C146.23 117.48 146.578 117.404 146.871 117.254C147.164 117.097 147.376 116.878 147.508 116.596V115.9H145.882C144.988 115.9 144.541 116.157 144.541 116.671C144.541 116.922 144.655 117.119 144.882 117.263C145.109 117.408 145.424 117.48 145.827 117.48ZM153.085 118.176C152.492 118.176 151.96 118.066 151.492 117.846C151.03 117.627 150.668 117.326 150.404 116.944C150.14 116.555 150.009 116.116 150.009 115.627C150.009 115.138 150.14 114.702 150.404 114.32C150.668 113.931 151.03 113.63 151.492 113.417C151.96 113.197 152.492 113.088 153.085 113.088C153.612 113.088 154.081 113.179 154.491 113.361C154.909 113.542 155.231 113.806 155.458 114.15L154.656 114.592C154.473 114.354 154.246 114.176 153.975 114.056C153.704 113.937 153.403 113.878 153.074 113.878C152.693 113.878 152.349 113.95 152.041 114.094C151.741 114.238 151.503 114.445 151.327 114.715C151.158 114.978 151.074 115.282 151.074 115.627C151.074 115.978 151.158 116.288 151.327 116.558C151.503 116.821 151.741 117.025 152.041 117.169C152.349 117.313 152.693 117.386 153.074 117.386C153.403 117.386 153.704 117.326 153.975 117.207C154.246 117.088 154.473 116.909 154.656 116.671L155.458 117.103C155.231 117.448 154.909 117.715 154.491 117.903C154.081 118.085 153.612 118.176 153.085 118.176ZM162 115.655C162 115.724 161.993 115.815 161.978 115.928H157.254C157.32 116.367 157.543 116.721 157.924 116.991C158.312 117.254 158.792 117.386 159.363 117.386C160.059 117.386 160.619 117.185 161.044 116.784L161.626 117.367C161.363 117.63 161.033 117.831 160.638 117.969C160.249 118.107 159.814 118.176 159.33 118.176C158.715 118.176 158.169 118.069 157.693 117.856C157.217 117.636 156.847 117.332 156.584 116.944C156.327 116.555 156.199 116.116 156.199 115.627C156.199 115.144 156.323 114.708 156.573 114.32C156.829 113.931 157.177 113.63 157.616 113.417C158.063 113.197 158.565 113.088 159.121 113.088C159.678 113.088 160.173 113.197 160.605 113.417C161.044 113.63 161.385 113.931 161.626 114.32C161.875 114.708 162 115.154 162 115.655ZM159.121 113.85C158.616 113.85 158.191 113.981 157.847 114.245C157.51 114.508 157.312 114.853 157.254 115.279H160.989C160.931 114.859 160.729 114.517 160.385 114.254C160.048 113.984 159.627 113.85 159.121 113.85Z" fill="white"/>
<path id="Vector_30" d="M23.5771 61.1576V66H22.2753V61.1576H19.2952V66H18V60.0587H19.2952V61.1072C19.304 60.9623 19.3436 60.8268 19.4141 60.7001C19.4846 60.5697 19.5771 60.4586 19.6916 60.3656C19.8106 60.2685 19.9472 60.1942 20.1013 60.1423C20.2555 60.0862 20.4207 60.0587 20.5969 60.0587H22.2753C22.4471 60.0587 22.6102 60.0862 22.7643 60.1423C22.9185 60.1942 23.0551 60.2685 23.174 60.3656C23.293 60.4586 23.3877 60.5697 23.4581 60.7001C23.533 60.8268 23.5727 60.9623 23.5771 61.1072C23.5859 60.9623 23.6234 60.8268 23.6894 60.7001C23.7599 60.5697 23.8524 60.4586 23.967 60.3656C24.0859 60.2685 24.2225 60.1942 24.3766 60.1423C24.5309 60.0862 24.696 60.0587 24.8723 60.0587H26.5507C26.7313 60.0587 26.9009 60.0883 27.0595 60.148C27.218 60.2036 27.3546 60.2815 27.4691 60.3822C27.5881 60.4788 27.6806 60.5941 27.7467 60.7281C27.8172 60.8621 27.8524 61.0049 27.8524 61.1576V66H26.5507V61.1576H23.5771ZM39.0331 64.8564C39.663 64.8564 40.1476 64.7131 40.4868 64.4269C40.826 64.1402 40.9956 63.7315 40.9956 63.1997V60.8003C40.9956 60.5401 40.9516 60.308 40.8635 60.1033C40.7753 59.8987 40.6454 59.7258 40.4736 59.5845C40.3062 59.4391 40.1013 59.3295 39.859 59.2553C39.6168 59.181 39.3414 59.1436 39.0331 59.1436H35.5705V64.8564H39.0331ZM34.2159 66V58H39.0331C39.5396 58 39.9956 58.067 40.4009 58.201C40.8106 58.3308 41.1586 58.5188 41.445 58.7645C41.7357 59.006 41.9582 59.2999 42.1123 59.6458C42.2709 59.9917 42.3503 60.3765 42.3503 60.8003V63.1997C42.3503 63.6235 42.2709 64.0083 42.1123 64.3542C41.9582 64.7001 41.7357 64.9961 41.445 65.2412C41.1586 65.4833 40.8106 65.6707 40.4009 65.8047C39.9956 65.9351 39.5396 66 39.0331 66H34.2159ZM52.6982 64.9011V63.5232H49.6123C49.4317 63.5232 49.2621 63.4952 49.1036 63.4391C48.945 63.3799 48.8062 63.3015 48.6872 63.2049C48.5727 63.1046 48.4802 62.9873 48.4097 62.8538C48.3436 62.7198 48.3106 62.5765 48.3106 62.4238V61.1576C48.3106 61.0049 48.3436 60.8621 48.4097 60.7281C48.4802 60.5941 48.5727 60.4788 48.6872 60.3822C48.8062 60.2815 48.945 60.2036 49.1036 60.148C49.2621 60.0883 49.4317 60.0587 49.6123 60.0587H53.7291V61.1576H49.6123V62.4238H52.6982C52.8789 62.4238 53.0463 62.4539 53.2004 62.5131C53.359 62.5692 53.4978 62.6471 53.6168 62.7473C53.7357 62.8445 53.8282 62.9598 53.8943 63.0932C53.9648 63.2272 54 63.3706 54 63.5232V64.9011C54 65.0538 53.9648 65.1966 53.8943 65.3306C53.8282 65.4646 53.7357 65.5814 53.6168 65.6822C53.4978 65.7788 53.359 65.8567 53.2004 65.9164C53.0463 65.972 52.8789 66 52.6982 66H48.3106V64.9011H52.6982Z" fill="white"/>
<path id="Vector_31" d="M62.4439 230.777C66.3813 241.269 78.1302 245 78.1302 245C78.1302 245 83.4935 231.718 79.5561 221.222C75.6187 210.73 63.8698 207 63.8698 207C63.8698 207 58.5065 220.282 62.4439 230.777Z" fill="#FF8108"/>
<path id="Vector_32" d="M70.1824 224.196C80.1277 229.722 82 242.008 82 242.008C82 242.008 67.7575 245.335 57.8122 239.805C47.8723 234.278 46 221.992 46 221.992C46 221.992 60.2425 218.666 70.1824 224.196Z" fill="#84A9AC"/>
</g>
<defs>
<linearGradient id="paint0_linear" x1="105" y1="4" x2="105" y2="124" gradientUnits="userSpaceOnUse">
<stop stop-color="#FC6714"/>
<stop offset="1" stop-color="#F33F27" stop-opacity="0"/>
</linearGradient>
<clipPath id="clip0">
<rect width="558" height="445" fill="white"/>
</clipPath>
</defs>
</svg>
